<svg preserveAspectRatio="none" width="100%" height="100%" overflow="visible" style="display: block;" viewBox="0 0 37.2311 21.5982" fill="none" xmlns="http://www.w3.org/2000/svg">
<g id="Mobile Arrow">
<g id="Component 2">
<path id="Vector 7" d="M0.615416 15.3309C0.77079 15.2793 0.973791 15.3352 1.13036 15.4118C1.17913 15.4355 1.15431 15.5415 1.18856 15.5627C1.25871 15.6039 1.31552 15.5519 1.38211 15.601C1.40404 15.6178 1.37673 15.7858 1.39978 15.7995C1.52837 15.8737 1.64319 15.8309 1.77046 15.8665C2.39689 16.0422 3.0099 16.1045 3.64188 16.1802C3.85179 16.205 4.10484 16.3571 4.3199 16.2902C4.34507 16.2822 4.32987 16.1348 4.33465 16.1227C4.40963 15.9366 4.38499 16.2342 4.43423 16.2737C4.62849 16.4295 4.84535 16.4428 5.03235 16.3857C5.11198 16.361 5.03179 16.0683 5.11218 16.2326C5.11776 16.2437 5.09772 16.4002 5.11958 16.4169C5.16919 16.4544 5.26324 16.4263 5.30163 16.4387C5.37563 16.4633 5.38786 16.4617 5.45772 16.4634C5.55357 16.4671 5.66773 16.5448 5.76995 16.5093C5.79178 16.5012 5.76274 16.3408 5.79752 16.3134C5.83243 16.2862 5.92554 16.2997 5.9567 16.3375C5.98795 16.3753 5.97475 16.5014 5.9803 16.5303C6.02599 16.7743 6.13226 16.4363 6.14588 16.4279C6.39824 16.2853 6.61337 16.4777 6.84862 16.4771C7.02819 16.4763 7.22062 16.4127 7.3891 16.4215C7.59381 16.4325 7.76606 16.5196 7.96138 16.5048C7.98175 16.5035 7.9581 16.3148 7.98295 16.3127C8.15959 16.2988 8.33346 16.3025 8.50236 16.341C8.56103 16.3624 8.64002 16.3913 8.72159 16.4308C8.74366 16.4421 8.72856 16.6094 8.75218 16.6305C8.89588 16.7574 9.20089 17.0457 9.17659 16.3182C9.28298 16.3296 9.40009 16.3378 9.52413 16.4613C9.60335 16.5409 9.57994 16.7298 9.64031 16.6389C9.65281 16.6188 9.60018 16.4683 9.62108 16.4499C9.70858 16.3726 9.83316 16.3975 9.9207 16.2929C9.93835 16.2712 9.89969 16.1349 9.89983 16.1086C9.89821 15.8968 10.0586 16.2088 10.0832 16.2282C10.2634 16.3738 10.3558 16.274 10.4794 16.2446C10.5091 16.2376 10.4238 16.0639 10.4504 16.0505C10.5881 15.9841 10.7512 15.9535 10.9158 15.9917C10.9533 16.0003 10.9711 16.1643 10.9916 16.1763C11.082 16.2272 11.0068 15.9301 11.0921 15.9727C11.1101 15.9813 11.1438 16.116 11.1509 16.1298C11.2629 16.3453 11.1961 16.011 11.2039 16.0006C11.3 15.8626 11.4882 16.1732 11.5984 16.0834C11.6113 16.0724 11.5219 15.9173 11.5614 15.8965C11.8241 15.757 12.1307 15.6984 12.4484 15.7289C12.4981 15.7332 12.5145 15.8679 12.5229 15.8821C12.6561 16.1033 12.5642 15.7742 12.5733 15.7571C12.6485 15.6298 12.8585 15.8543 12.7822 15.4489C13.289 15.401 13.657 14.9989 14.2472 15.1321C14.2546 15.1334 14.3129 15.2909 14.3275 15.2928C14.5044 15.3164 14.3713 15.0906 14.33 14.7595C14.3197 14.6763 14.5489 14.9942 14.5667 15.017C14.6322 15.1012 14.7136 15.3382 14.7294 15.3531C14.8577 15.4678 14.5016 14.7242 14.5834 14.6859C14.5865 14.6859 14.6398 14.8285 14.6531 14.839C14.6946 14.8719 14.6905 14.8073 14.7338 14.8447C14.8333 14.9315 15.0219 15.2856 14.9972 15.0393C14.9937 15.0074 14.779 14.5917 14.8625 14.5765C14.8959 14.5708 15.0238 14.5005 15.072 14.5107C15.1211 14.5205 15.1623 14.668 15.1676 14.6727C15.3523 14.8045 15.3515 14.8967 15.5306 15.1376C15.7098 15.3771 15.3872 14.7545 15.3727 14.6744C15.3582 14.5946 15.5028 14.7065 15.5462 14.7488C15.5894 14.7912 15.6097 14.888 15.64 14.9091C15.8398 15.0459 15.531 14.5747 15.5157 14.458C15.4782 14.1822 15.7759 14.6143 15.8721 14.6225C15.8982 14.6247 15.8283 14.5274 15.8409 14.5086C15.8914 14.4354 16.0078 14.558 16.0193 14.3846C16.0214 14.3562 15.9413 14.0457 16.089 14.2274C16.1102 14.2536 16.1533 14.3773 16.1967 14.3873C16.2617 14.4025 16.3561 14.3849 16.3842 14.3209C16.4047 14.2738 16.2643 14.1066 16.3393 14.1419C16.3727 14.1576 16.3951 14.2872 16.4531 14.3075C16.511 14.328 16.6023 14.2728 16.6361 14.2497C16.6697 14.2265 16.5732 14.0946 16.5709 14.0834C16.5586 14.0191 16.5894 13.9136 16.5955 13.9104C16.8909 13.7272 17.2988 13.8108 17.5492 13.561C17.5688 13.5417 17.4676 13.403 17.4697 13.3985C17.5117 13.2912 17.6787 13.7194 17.8102 13.8186C17.6274 13.5241 17.6912 13.5595 17.7267 13.4945C17.7437 13.4629 17.6612 13.3558 17.6567 13.3425C17.5921 13.144 17.753 13.3547 17.7876 13.3968C17.9145 13.5518 17.8233 13.3337 17.9087 13.437C17.9937 13.5393 18.0524 13.7311 18.1043 13.6973C18.0555 13.5819 17.8503 13.3269 17.8632 13.258C17.9115 12.9981 18.3211 13.0458 18.4547 12.9932C18.588 12.9412 18.6143 12.8974 18.7079 12.8912C18.877 12.8798 18.7023 12.7058 18.7197 12.564C18.7367 12.4222 19.0198 12.9437 19.0997 13.0435C19.1796 13.1433 19.1208 13.0255 19.1724 13.0754C19.224 13.1253 19.2412 13.2171 19.2878 13.2183C19.3345 13.2193 19.2995 12.9722 19.2379 12.8535C19.1076 12.602 18.9067 12.3801 19.0472 12.4123C19.0554 12.4143 19.1251 12.5546 19.1523 12.5556C19.365 12.5592 19.5229 12.4626 19.7273 12.4517C19.7556 12.4503 19.8351 12.6056 19.8527 12.6064C20.0373 12.6145 19.8292 12.4031 19.7115 12.0906C19.9412 12.4563 20.1278 12.6486 20.2225 12.5859C20.2794 12.5484 20.1621 12.4004 20.1218 12.2665C20.1096 12.2262 20.223 12.3047 20.1792 12.2272C20.0359 11.9738 19.8133 11.734 19.9805 11.7741C19.9881 11.7762 20.0667 11.9149 20.0863 11.9128C20.2139 11.8994 20.0492 11.6448 20.125 11.5452C20.1844 11.4672 20.4287 11.5181 20.5338 11.4779C20.8193 11.8701 20.8377 11.7185 20.6708 11.4257C20.735 11.3951 20.784 11.3347 20.8659 11.3309C20.894 11.3295 20.9663 11.4508 20.9778 11.4612C21.1575 11.6238 20.9857 11.3457 20.99 11.3264C21.0452 11.1288 21.3028 11.2416 21.278 10.955C21.2771 10.9447 21.0762 10.674 21.2607 10.842C21.2734 10.8536 21.3274 11.0061 21.3925 10.97C21.4574 10.9342 21.6793 10.9887 21.6616 10.8025C21.6576 10.7576 21.5341 10.5057 21.7076 10.6402C21.7311 10.6585 21.7863 10.7382 21.8277 10.7738C21.9603 10.8869 21.7585 10.6121 21.97 10.8129C22.1815 11.0137 22.3804 11.131 22.3339 10.9102C22.3328 10.9036 22.1795 10.6801 22.2073 10.6625C22.2519 10.6346 22.3449 10.63 22.3856 10.5934C22.405 10.5758 22.2841 10.4585 22.2856 10.4532C22.3584 10.2687 22.5501 10.3013 22.7347 10.2264C22.769 10.2128 22.692 9.97622 22.8615 10.0675C23.0477 10.1667 23.5371 10.833 23.5361 10.571C23.5369 10.4649 22.9001 9.63352 23.3547 9.95089C23.4395 9.69168 23.7901 9.74251 23.831 9.43763C23.833 9.42399 23.6551 9.19072 23.6758 9.17625C23.7069 9.15508 23.8164 9.23854 23.8419 9.22632C23.9506 9.17773 23.9415 9.02305 24.0302 8.96018C24.0637 8.93603 24.1532 9.04573 24.1933 9.01663C24.2334 8.98734 24.1246 8.83382 24.2346 8.84976C24.3181 8.86227 24.6242 9.09153 24.7032 9.07371C24.437 8.81118 24.4746 8.78362 24.4597 8.65687C24.4567 8.6324 24.3514 8.55415 24.3451 8.53794C24.3173 8.47008 24.4142 8.52488 24.3809 8.454C24.373 8.43693 24.2809 8.3485 24.2692 8.3296C24.1657 8.16576 24.4274 8.30708 24.4732 8.33135C24.6469 8.42398 24.5426 8.29243 24.6243 8.31457C24.7062 8.33653 24.7337 8.44398 24.7988 8.44079C24.9337 8.43382 25.0036 8.3275 25.0745 8.25825C25.1022 8.23006 24.9579 8.13545 24.9589 8.12875C24.9812 8.03996 25.1711 8.09964 24.9477 7.84018C25.6403 8.3822 24.9166 7.74727 25.1239 7.77784C25.1405 7.78049 25.4602 8.04561 25.4824 8.11262C25.5044 8.17968 25.3716 8.13397 25.4098 8.23393C25.4188 8.25731 25.6636 8.56703 25.6747 8.58988C25.7627 8.76749 25.2954 8.35932 25.2677 8.33919C24.9665 8.12412 25.2221 8.46583 25.2285 8.50167C25.2594 8.66441 25.1379 8.66713 25.1506 8.79233C25.1582 8.87374 25.4507 9.15585 25.4118 9.17902C25.282 9.25657 24.8394 8.89935 25.0998 9.33725C25.1551 9.43088 25.4941 9.71936 25.1703 9.55144C25.1497 9.54103 24.8675 9.37288 24.9804 9.54618C24.9946 9.56805 25.087 9.65869 25.0895 9.67163C25.1045 9.75662 25.0078 9.70784 25.0045 9.78117C25.0012 9.85452 25.0067 9.95311 24.9316 9.96583C24.8864 9.97371 24.6829 9.83576 24.6289 9.80605C24.4741 9.7198 24.6309 9.95648 24.4649 9.83076C24.2983 9.70409 24.1218 9.43724 23.9712 9.39721C24.2033 9.64044 24.4388 9.89287 24.6707 10.139C24.5318 10.2573 24.3279 10.3013 24.2058 10.4356C24.1908 10.4525 24.331 10.569 24.3181 10.5906C24.2626 10.6815 24.1101 10.6469 24.0664 10.7563C24.0332 10.8414 24.0946 11.0439 24.0623 11.1377C23.7662 10.8865 23.7589 11.068 23.6662 11.1026C23.6339 11.1149 23.5677 11.0362 23.5285 11.0261C23.3821 10.9895 23.6362 11.2188 23.6535 11.2748C23.7263 11.5143 23.2149 10.9392 23.1378 11.0306C23.1338 11.0352 23.342 11.397 23.3502 11.4235C23.4064 11.5946 23.2489 11.3223 23.1969 11.3268C23.1019 11.3348 22.9981 11.2944 23.006 11.4446C23.0088 11.4887 23.1236 11.7261 22.9574 11.6069C22.9357 11.5913 22.8519 11.4846 22.8427 11.482C22.6829 11.4425 22.9524 11.7724 23.0001 11.9201C23.0474 12.068 22.7929 11.896 22.7258 11.8412C22.5515 11.7003 22.6943 11.7461 22.6826 11.7278C22.5435 11.5108 22.5225 11.5849 22.4715 11.5984C22.2029 11.2783 22.1672 11.3394 22.4197 11.6136C22.4474 11.6435 22.452 11.5896 22.4715 11.5984C22.697 11.9432 22.6704 12.0322 22.3671 11.7843C22.2251 11.668 22.1227 11.4821 22.0804 11.6135C22.0611 11.673 22.2556 11.8859 22.2677 11.9763C22.2947 12.183 22.02 12.0571 21.9591 12.1576C21.9368 12.1941 22.0638 12.295 22.0519 12.3243C22.0202 12.4027 21.8975 12.3478 21.8762 12.44C21.8744 12.4486 21.9871 12.57 21.9702 12.5854C21.8438 12.7054 21.6616 12.71 21.5144 12.8147C21.4436 12.8653 21.3713 13.0305 21.2874 13.0684C21.1422 13.1353 20.8493 13.0491 20.7734 13.1732C20.7237 13.2535 20.8335 13.3778 20.8669 13.4914C20.9315 13.7118 20.6045 13.4633 20.5567 13.4229C20.5552 13.4215 20.5944 13.3473 20.5138 13.3001C20.395 13.1678 20.557 13.4217 20.5567 13.4229C20.5253 13.3972 20.3818 13.4498 20.3751 13.4923C20.3715 13.5155 20.4666 13.6398 20.463 13.6495C20.3774 13.8764 20.2285 14.0231 20.0191 14.0725C20.0144 14.0718 19.9234 13.9226 19.9135 13.9227C19.7734 13.9214 19.8271 14.141 19.8141 14.3001C19.8005 14.4595 19.7113 14.4658 19.5027 14.2428C19.461 14.3139 19.3018 14.2571 19.2086 14.2203C19.1155 14.1835 19.2876 14.4769 19.2867 14.4854C19.2594 14.7553 19.0758 14.6395 18.9126 14.7028C18.8347 14.7323 18.7212 14.8577 18.6641 14.9345C18.6193 14.9958 18.5428 14.9483 18.5134 15.0245C18.5094 15.0348 18.5933 15.1611 18.594 15.1675C18.6234 15.3601 18.4666 15.023 18.4206 14.9733C18.2529 14.7927 18.1603 14.6984 18.1375 14.8422C18.1323 14.8751 18.3441 15.3681 18.3255 15.4147C18.301 15.4742 18.223 15.2988 18.1999 15.3651C18.1979 15.3707 18.257 15.4727 18.2259 15.4843C18.0822 15.5399 17.9075 15.5591 17.773 15.6467C17.7546 15.6582 17.8692 15.8085 17.8439 15.8278C17.7254 15.9183 17.5804 15.989 17.4142 15.9786C17.373 15.9755 17.3306 15.8498 17.3057 15.819C17.1543 15.6332 17.2574 15.9654 17.2501 15.9766C17.0931 16.2454 16.7746 16.0619 16.6063 16.312C16.5974 16.3262 16.6605 16.7045 16.4753 16.4457C16.4627 16.4286 16.2756 16.1628 16.3344 16.3789C16.3381 16.3924 16.4391 16.527 16.3835 16.5357C16.3281 16.5444 16.2992 16.6818 16.1537 16.5504C16.1077 16.5091 15.9191 16.2443 15.9689 16.5041C15.9738 16.5216 16.1248 17.0902 15.9178 16.7471C15.8839 16.6906 15.7082 16.307 15.7263 16.5379C15.7299 16.5826 15.7964 16.6553 15.7837 16.7263C15.7642 16.8358 15.6396 16.7695 15.6479 16.973C15.6497 17.0088 15.717 17.2934 15.5833 17.1157C15.5624 17.0879 15.5159 16.9542 15.487 16.9502C15.3509 16.9297 15.2733 17.0685 15.1246 17.0285C15.0719 17.0146 14.9985 16.7979 14.9336 16.7601C14.8687 16.7223 14.7652 16.704 14.7657 16.8175C14.7661 16.9311 14.9579 17.2432 14.9067 17.2974C14.6767 17.536 14.3218 17.455 14.0271 17.5413C13.9835 17.5539 14.0671 17.6602 14.0063 17.6875C13.7865 17.7875 13.4287 18.0566 13.1361 17.8702C12.9031 17.7208 13.0405 17.4905 12.8912 17.4498C12.8187 17.4308 12.8982 17.8509 12.8883 17.8686C12.7934 18.0465 12.6339 17.9046 12.5294 18.0017C12.5077 18.0218 12.5888 18.1747 12.5697 18.19C12.5049 18.2439 12.3956 18.2005 12.3271 18.2382C12.2962 18.2556 12.3437 18.3774 12.3101 18.378C12.2301 18.3808 12.1488 18.3497 12.0416 18.2558C12.0319 18.2472 12.0242 18.0789 11.9701 18.0901C11.884 18.1081 11.7343 18.0289 11.6721 18.1785C11.6535 18.2235 11.7394 18.5095 11.6153 18.3317C11.5893 18.2946 11.5026 17.9464 11.5184 18.2651C11.5219 18.3179 11.514 18.7561 11.3727 18.5165C11.3359 18.4534 11.2125 18.1837 11.189 18.2383C11.186 18.2467 11.2497 18.3953 11.2236 18.419C11.1293 18.5001 11.02 18.5124 10.9172 18.5915C10.89 18.6129 10.9781 18.7613 10.936 18.788C10.8193 18.8621 10.6564 18.8592 10.522 18.8375C10.4705 18.8297 10.4716 18.6882 10.4647 18.6745C10.3551 18.4503 10.3978 18.7773 10.3837 18.8002C10.2967 18.9376 10.1799 18.805 10.0884 18.8655C10.0605 18.8823 10.1131 19.0313 10.1099 19.0462C10.0742 19.1927 10.0651 18.9076 10.0199 18.8851C9.89352 18.8208 9.7782 18.8549 9.67567 18.8926C9.63731 18.9067 9.7136 19.078 9.67587 19.0891C9.4514 19.158 9.21051 19.1729 8.95883 19.0928C8.913 19.0771 8.93019 18.9355 8.9186 18.9044C8.84765 18.6861 8.75621 18.9964 8.7339 19.0262C8.63306 19.1582 8.58516 19.0487 8.49606 19.0614C8.49387 19.0618 8.49163 19.0625 8.48935 19.0633C8.17051 19.1774 7.77418 19.0952 7.47368 19.0445C7.07995 18.9793 6.77419 18.8464 6.39757 18.8811C6.37378 18.8832 6.39788 19.0691 6.37737 19.0733C6.11075 19.1183 5.84894 19.0458 5.5827 19.0998C5.56079 19.1039 5.59255 19.2802 5.55738 19.2927C5.48504 19.3195 5.39413 19.3101 5.32121 19.2538C5.28566 19.2267 5.33315 19.0754 5.29737 19.0512C5.21404 18.9946 5.12462 18.9821 5.03915 19.0105C5.00276 19.0229 5.05788 19.2032 5.01057 19.2053C4.68853 19.2236 4.37133 19.255 4.04552 19.0219C4.02309 19.0059 4.00294 18.6395 3.95552 18.7098C3.95208 18.8115 3.95242 18.9312 3.951 19.0399C3.48167 19.099 3.01633 18.9726 2.54672 18.9535C2.52705 18.9527 2.56173 19.1469 2.52284 19.1464C2.29719 19.1437 2.08521 19.1977 1.85469 19.0049C1.83214 18.986 1.84311 18.6444 1.77746 18.6961C1.76672 18.7055 1.66575 18.7511 1.63906 18.8253C1.63551 18.8365 1.65407 18.996 1.62141 19.0006C1.4397 19.0249 1.23215 18.9885 1.05023 18.891C1.01821 18.8749 1.05237 18.7051 1.02968 18.6922C0.87544 18.602 0.707055 18.7308 0.559723 18.576C0.455368 18.4717 0.505269 18.1784 0.445929 17.8891C0.437591 17.8483 0.37769 17.8412 0.373094 17.6729C0.372364 17.2501 0.409427 16.7877 0.403646 16.337C0.403329 16.2885 0.382909 16.29 0.388541 16.2748C0.394356 16.2714 0.399986 16.2654 0.45743 16.2641C0.490603 16.2658 0.527658 16.2595 0.665228 16.2958C0.735049 16.3176 0.842002 16.3472 1.00202 16.4659C1.16104 16.5741 1.3518 16.8524 1.39324 17.0684C1.43923 17.2821 1.42277 17.363 1.4292 17.2678C1.43512 17.1854 1.39483 16.8667 1.21293 16.6369C0.817139 16.1874 0.619486 16.2478 0.547117 16.2003C0.39769 16.1566 0.40462 16.1413 0.392703 16.1097C0.378948 16.0938 0.431873 16.0168 0.443142 15.9373C0.452325 15.8824 0.438182 15.7113 0.456743 15.641C0.476168 15.5709 0.498856 15.7143 0.528859 15.6318C0.560731 15.5482 0.550925 15.3537 0.615416 15.3309ZM18.7924 14.0547C18.6609 13.9437 18.9656 14.4585 18.9417 14.3054C18.9402 14.2974 18.799 14.06 18.7924 14.0547ZM24.0184 9.97216C23.7853 9.82946 24.0151 10.1457 24.1919 10.2592C24.369 10.372 24.0894 10.0151 24.0184 9.97216ZM24.4171 9.316C24.2115 9.22729 24.7996 9.83872 24.7432 9.65278C24.7402 9.64215 24.4291 9.32109 24.4171 9.316ZM0.691386 17.8079C0.690289 17.8 0.645366 17.7921 0.644634 17.8C0.620132 17.9899 0.709838 18.0055 0.691386 17.8079ZM24.7776 8.64482C24.6765 8.5847 24.7214 8.72976 24.8469 8.80481C24.9482 8.86497 24.9036 8.71932 24.7776 8.64482ZM16.0065 14.8818C16.0017 14.8742 15.9705 14.8811 15.9938 14.9257C16.0691 15.0695 16.087 15.0091 16.0065 14.8818ZM25.5994 7.7161C25.4549 7.83591 24.8558 7.4565 25.0423 7.36182C25.0762 7.34435 25.1618 7.56539 25.239 7.57256C25.3808 7.58443 25.0817 7.25726 25.3156 7.34582C25.3587 7.36175 25.6091 7.71003 25.5999 7.71698C25.5998 7.71669 25.5996 7.7164 25.5994 7.7161ZM18.391 13.458C18.3861 13.4517 18.3451 13.4679 18.3483 13.4752C18.427 13.6496 18.5098 13.6169 18.391 13.458ZM14.2097 15.328C14.2007 15.3136 14.1043 15.339 14.1076 15.3544C14.1853 15.6596 14.3824 15.6083 14.2097 15.328ZM20.5428 11.4873C20.467 11.3059 20.4979 11.255 20.6705 11.4256C20.6262 11.4427 20.5872 11.4692 20.5428 11.4873Z" fill="var(--stroke-0, black)"/>
</g>
<path id="Vector 8" d="M17.1001 5.75568C17.186 5.71267 17.3533 5.77654 17.4883 5.85456C17.5306 5.87884 17.5077 5.98458 17.538 6.00602C17.5973 6.04774 17.6543 5.99566 17.7149 6.04416C17.7354 6.06074 17.7117 6.22893 17.7335 6.24246C17.8526 6.31526 17.966 6.2694 18.0905 6.30004C18.7052 6.45058 19.3346 6.44962 19.9746 6.42616C20.0721 6.42249 20.1839 6.4432 20.2969 6.45545C20.4181 6.47161 20.5456 6.47385 20.6468 6.41469C20.6689 6.40167 20.6226 6.26095 20.6245 6.24809C20.6533 6.05098 20.6961 6.34633 20.7512 6.37415C20.9713 6.48324 21.1879 6.43984 21.3519 6.3329C21.4214 6.28694 21.2626 6.02842 21.3851 6.16363C21.3936 6.17268 21.4187 6.32851 21.4445 6.33828C21.5031 6.3601 21.5859 6.30554 21.6265 6.30577C21.7055 6.30688 21.717 6.30154 21.785 6.28145C21.8787 6.25508 22.0136 6.29188 22.1014 6.22374C22.1198 6.20882 22.0393 6.06697 22.0636 6.02956C22.0878 5.99228 22.1807 5.97366 22.2231 5.9985C22.2656 6.02334 22.2961 6.14646 22.3112 6.17172C22.4389 6.38505 22.426 6.02939 22.4354 6.01685C22.6242 5.79391 22.8979 5.89155 23.122 5.7964C23.2915 5.72397 23.4452 5.58659 23.6073 5.52168C23.8005 5.44496 23.9977 5.44685 24.1728 5.3429C24.1913 5.3321 24.0847 5.17447 24.1069 5.16104C24.3429 5.01833 24.5911 4.91019 24.8924 4.88698C24.9228 4.88475 24.973 5.04659 25.0083 5.05288C25.2217 5.08967 25.6299 5.22808 25.34 4.55953C25.4223 4.53393 25.5163 4.50068 25.6257 4.51297C25.6508 4.52551 25.6814 4.54077 25.7167 4.56162C25.8077 4.61102 25.8787 4.78344 25.8828 4.68342C25.8836 4.66097 25.7719 4.5478 25.779 4.52466C25.8072 4.42854 25.919 4.39528 25.933 4.26572C25.9354 4.23924 25.8309 4.14351 25.8167 4.12159C25.7012 3.94504 26.0032 4.12254 26.0354 4.12428C26.2693 4.14456 26.2911 4.00961 26.3928 3.90137C26.4168 3.87582 26.2468 3.78099 26.2649 3.75185C26.3629 3.60173 26.497 3.46647 26.7455 3.35325C26.8035 3.32763 26.8691 3.4858 26.9015 3.48063C27.0183 3.46395 26.9209 3.28239 27.0259 3.18101C27.0431 3.16344 27.067 3.1507 27.1004 3.14645C27.1417 3.14101 27.1823 3.27576 27.1952 3.28638C27.3661 3.46656 27.3607 3.11669 27.4239 3.09737C27.5425 3.04438 27.7867 3.04878 27.9627 3.15294C28.1496 3.2557 28.2472 3.42224 28.2761 3.53124C28.3408 3.77244 28.269 3.88383 28.3158 3.99093C28.3262 4.01888 28.4905 3.92532 28.5092 4.01041C28.603 4.50594 28.4926 4.83463 28.3156 5.1537C28.2875 5.20221 28.1616 5.14824 28.1451 5.14939C27.8865 5.16778 28.2189 5.2478 28.2292 5.267C28.3032 5.40469 28.0018 5.49115 28.3898 5.63477C28.1667 6.15999 28.2992 6.725 27.8536 7.19372C27.8483 7.19977 27.685 7.16022 27.6752 7.17241C27.5554 7.31974 27.8175 7.33167 28.1144 7.48854C28.189 7.52791 27.7962 7.54726 27.7672 7.55012C27.6603 7.55985 27.4187 7.49224 27.3974 7.49787C27.2296 7.54595 28.0451 7.66752 28.0295 7.76527C28.0277 7.76808 27.8799 7.73117 27.8637 7.73689C27.8129 7.75462 27.8683 7.78936 27.8128 7.80597C27.6843 7.84381 27.2854 7.80119 27.5016 7.92637C27.5297 7.94236 27.9943 7.99833 27.9585 8.08347C27.9438 8.117 27.928 8.27091 27.8913 8.31007C27.8547 8.34883 27.7103 8.29616 27.7034 8.29825C27.4884 8.3856 27.4136 8.32861 27.1129 8.34387C26.8133 8.35869 27.509 8.44699 27.5828 8.48233C27.6564 8.51753 27.481 8.57851 27.4213 8.59138C27.3616 8.60412 27.2708 8.5637 27.236 8.57778C27.0084 8.67222 27.5722 8.6834 27.6762 8.74064C27.9226 8.87634 27.3976 8.87462 27.3346 8.95658C27.3176 8.9786 27.4376 8.97564 27.4455 8.99848C27.4756 9.08845 27.3076 9.11844 27.4419 9.23437C27.4638 9.25335 27.7631 9.37177 27.5291 9.39134C27.4954 9.39407 27.3697 9.35671 27.3361 9.38888C27.2858 9.43684 27.2449 9.53091 27.2804 9.59492C27.3067 9.64133 27.5247 9.61992 27.4521 9.66469C27.4197 9.68464 27.3014 9.62492 27.2509 9.66386C27.2004 9.70252 27.1916 9.81756 27.1906 9.86184C27.1897 9.90601 27.3533 9.90163 27.3637 9.90648C27.4232 9.93528 27.4907 10.028 27.4897 10.0354C27.4659 10.4037 27.1581 10.7202 27.2154 11.0895C27.2197 11.1185 27.3915 11.1148 27.3939 11.1194C27.4565 11.2225 27.0111 11.1058 26.8537 11.1611C27.1997 11.1813 27.1337 11.2161 27.1657 11.2882C27.1815 11.3229 27.3167 11.316 27.3301 11.3202C27.5292 11.3854 27.2641 11.3974 27.2097 11.4019C27.0097 11.4183 27.2402 11.4722 27.1065 11.4838C26.9737 11.4957 26.7835 11.4294 26.7808 11.4959C26.9031 11.5239 27.23 11.5001 27.2786 11.5539C27.4449 11.7381 27.2331 12.0248 27.1669 12.1914L27.1671 12.1529C27.162 12.1704 27.1584 12.1864 27.1566 12.2005C27.138 12.352 27.1641 12.3991 27.1249 12.4893C27.0545 12.6528 27.2907 12.5789 27.4075 12.6674C27.5246 12.7556 26.9311 12.7546 26.8053 12.7786C26.6797 12.8027 26.8114 12.8079 26.7431 12.831C26.6749 12.8543 26.5856 12.823 26.5628 12.8668C26.54 12.9109 26.7753 13.005 26.9091 13.0071C27.1925 13.0121 27.4824 12.9358 27.3888 13.0509C27.3833 13.0575 27.2265 13.0524 27.213 13.0773C27.1117 13.2758 27.1258 13.4714 27.0445 13.6721C27.0331 13.6999 26.8584 13.6985 26.8499 13.7151C26.7607 13.8879 27.0428 13.7937 27.3755 13.8343C26.9455 13.8739 26.6902 13.9578 26.7054 14.0797C26.7145 14.1528 26.8991 14.1126 27.0374 14.1389C27.0791 14.1466 26.959 14.2171 27.048 14.2126C27.339 14.1976 27.6517 14.1003 27.5434 14.2398C27.5382 14.246 27.3789 14.2547 27.3724 14.2745C27.3299 14.4028 27.6311 14.3667 27.6892 14.4849C27.7348 14.5774 27.5862 14.786 27.5797 14.9049C27.1035 14.998 27.2349 15.086 27.5713 15.0597C27.5733 15.1356 27.6088 15.2101 27.5795 15.2906C27.5696 15.3184 27.429 15.3333 27.4149 15.3396C27.1934 15.4397 27.5181 15.3997 27.5341 15.4123C27.6942 15.554 27.4891 15.7527 27.7645 15.8547C27.7744 15.8584 28.1027 15.7823 27.876 15.8874C27.8603 15.8946 27.698 15.8801 27.7066 15.9592C27.7149 16.0377 27.5802 16.2303 27.7606 16.2935C27.8041 16.3091 28.0851 16.2966 27.895 16.4077C27.8691 16.4227 27.7742 16.4423 27.7255 16.4674C27.5707 16.5483 27.9024 16.4689 27.6364 16.5895C27.3704 16.7099 27.1878 16.8553 27.4123 16.9046C27.4189 16.9064 27.6845 16.8513 27.691 16.886C27.7011 16.9415 27.672 17.0348 27.6919 17.0903C27.7016 17.1167 27.8553 17.0475 27.8597 17.0511C28.0074 17.1998 27.9086 17.3731 27.9153 17.586C27.9163 17.6254 28.167 17.6473 28.022 17.7764C27.8684 17.9146 27.1097 18.1143 27.2929 18.2247C27.2942 18.2303 27.3021 18.246 27.3036 18.2515C27.3093 18.2547 27.3159 18.2577 27.3234 18.2606C27.4256 18.3013 28.4219 17.9762 27.9767 18.3101C28.2011 18.4929 28.0381 18.8142 28.3085 18.9775C28.3205 18.9847 28.6052 18.9126 28.6115 18.9397C28.6202 18.98 28.501 19.0497 28.5029 19.0798C28.507 19.2065 28.6541 19.2705 28.675 19.3879C28.683 19.432 28.5446 19.4623 28.5536 19.5144C28.5624 19.5657 28.75 19.543 28.6858 19.638C28.6368 19.7103 28.289 19.8694 28.2649 19.9455C28.6249 19.8447 28.6308 19.8922 28.7489 19.9506C28.7717 19.962 28.8927 19.9106 28.91 19.9143C28.9833 19.9286 28.8867 19.9853 28.9651 19.9974C28.984 20.0005 29.1078 19.9692 29.1303 19.9701C29.3262 19.9768 29.0683 20.1329 29.0227 20.158C28.8507 20.2563 29.0183 20.2451 28.9548 20.3044C28.8909 20.3622 28.786 20.3198 28.7521 20.3778C28.6821 20.4979 28.7269 20.6206 28.7386 20.724C28.7441 20.7653 28.9073 20.7087 28.912 20.714C28.9693 20.7929 28.803 20.906 29.1459 20.9056C28.2852 21.0887 29.238 20.9458 29.0799 21.0961C29.067 21.1081 28.6564 21.1698 28.5915 21.1414C28.5267 21.1132 28.6483 21.0429 28.5471 21.0057C28.5233 20.9962 28.1289 20.9881 28.1044 20.984C27.9121 20.9453 28.5227 20.8371 28.5557 20.8273C28.9115 20.7244 28.4836 20.71 28.4515 20.696C28.3034 20.6236 28.3725 20.5257 28.2627 20.4663C28.1915 20.4274 27.794 20.5119 27.7975 20.4716C27.8088 20.3394 28.3444 20.1462 27.8367 20.1524C27.7284 20.1542 27.3086 20.3006 27.6188 20.1159C27.6387 20.1049 27.9248 19.9456 27.7191 19.9646C27.6933 19.9671 27.5696 20.0054 27.5573 20.0023C27.4772 19.9813 27.5664 19.9215 27.5044 19.8906C27.4423 19.8595 27.3544 19.8292 27.3775 19.7622C27.3914 19.7224 27.6037 19.6 27.6534 19.5639C27.797 19.461 27.5176 19.5097 27.7001 19.4099C27.8828 19.308 28.1988 19.2548 28.2941 19.1291C27.9789 19.2462 27.6541 19.3632 27.3368 19.4802C27.288 19.3201 27.3237 19.1211 27.2394 18.9604C27.2287 18.9407 27.0712 19.0323 27.0555 19.013C26.9895 18.9313 27.0723 18.7976 26.9818 18.7169C26.911 18.6546 26.6976 18.6424 26.6165 18.574C26.6669 18.5433 26.7057 18.5155 26.7352 18.4901C26.7324 18.48 26.7182 18.4516 26.7158 18.4414C26.8859 18.3056 26.7634 18.2323 26.7622 18.1415C26.7616 18.1042 26.8591 18.0715 26.8822 18.0368C26.9674 17.9068 26.662 18.0626 26.6029 18.0561C26.35 18.0261 27.0729 17.7622 27.0132 17.6474C27.0104 17.6415 26.5949 17.6941 26.5668 17.6908C26.3852 17.6733 26.6982 17.6335 26.7122 17.5799C26.7378 17.4818 26.8128 17.3966 26.668 17.3392C26.6253 17.3229 26.3603 17.3336 26.532 17.2201C26.5545 17.2052 26.6851 17.1685 26.6909 17.1605C26.7853 17.0189 26.3777 17.1423 26.2212 17.1242C26.0647 17.1057 26.3188 16.9283 26.3948 16.8861C26.5908 16.7754 26.4957 16.8968 26.5171 16.8934C26.7717 16.851 26.7098 16.7977 26.7158 16.7412C27.1146 16.6166 27.0706 16.5547 26.7206 16.6832C26.6824 16.6974 26.7312 16.7257 26.7158 16.7412C26.3096 16.8123 26.2355 16.7451 26.58 16.5551C26.7417 16.4664 26.9536 16.4482 26.8466 16.3479C26.7983 16.3021 26.5265 16.3988 26.4375 16.3697C26.234 16.3023 26.4554 16.0867 26.3858 15.9808C26.3604 15.942 26.2178 16.0211 26.1951 15.9957C26.1345 15.9278 26.233 15.8318 26.1558 15.7674C26.1487 15.7616 25.9922 15.8164 25.9844 15.7923C25.9226 15.6099 25.9903 15.4248 25.9539 15.2296C25.9361 15.1355 25.8143 14.9834 25.8146 14.8816C25.8135 14.7048 26.0155 14.4576 25.9361 14.3229C25.8849 14.2342 25.7251 14.2792 25.6079 14.2546C25.3805 14.2063 25.7473 14.0107 25.8048 13.9851C25.8067 13.9843 25.8563 14.0603 25.9343 14.0055C26.1056 13.9567 25.8057 13.9859 25.8048 13.9851C25.8417 13.9676 25.8576 13.8001 25.8226 13.7718C25.8033 13.7564 25.6495 13.7853 25.6424 13.7769C25.4766 13.5743 25.4133 13.3541 25.466 13.1236C25.4688 13.1194 25.6433 13.1097 25.6477 13.1001C25.7137 12.965 25.4942 12.9006 25.3596 12.8026C25.2252 12.7046 25.2619 12.6147 25.5574 12.5334C25.5146 12.4551 25.6407 12.333 25.7178 12.2634C25.7376 12.2455 25.7298 12.2327 25.7071 12.2234C25.709 12.2007 25.7033 12.1324 25.7075 12.1101C25.6452 12.0771 25.4573 12.0603 25.4525 12.0557C25.2481 11.8635 25.449 11.7719 25.4923 11.59C25.5134 11.5028 25.4775 11.3251 25.4483 11.2275C25.4246 11.1506 25.5079 11.1115 25.4631 11.0379C25.4572 11.0279 25.3055 11.0242 25.2999 11.0209C25.1263 10.9273 25.4917 10.9972 25.559 10.9871C25.8036 10.9508 25.9342 10.9277 25.8307 10.82C25.807 10.7953 25.2827 10.6793 25.2558 10.6338C25.2218 10.5755 25.4099 10.6147 25.3695 10.5535C25.3662 10.5483 25.2488 10.5375 25.2575 10.503C25.2963 10.3429 25.3834 10.1747 25.3907 10.0053C25.3922 9.9823 25.2031 9.99054 25.2021 9.95684C25.1978 9.79974 25.2253 9.62806 25.331 9.48866C25.3576 9.45442 25.4846 9.49393 25.5241 9.49076C25.7636 9.47114 25.4334 9.35931 25.4285 9.34654C25.3015 9.04752 25.6366 8.87999 25.5305 8.58213C25.524 8.56664 25.1786 8.39599 25.4971 8.38913C25.5184 8.38849 25.8439 8.38399 25.6333 8.30654C25.6201 8.30169 25.4516 8.30933 25.4766 8.25603C25.5016 8.20251 25.4056 8.09826 25.5973 8.04732C25.6576 8.03139 25.9833 8.02274 25.7419 7.91191C25.7249 7.90465 25.1712 7.7045 25.5713 7.7272C25.6371 7.73112 26.0529 7.80319 25.8528 7.68301C25.814 7.65994 25.7163 7.67519 25.6652 7.62248C25.5863 7.54156 25.7119 7.47205 25.5392 7.36208C25.5085 7.34349 25.2358 7.23593 25.4583 7.22212C25.4931 7.21998 25.6298 7.25707 25.6496 7.23395C25.7441 7.12378 25.6714 6.98589 25.7882 6.87697C25.8292 6.83916 26.0502 6.89862 26.1179 6.86369C26.1856 6.8283 26.2581 6.75033 26.1635 6.68505C26.0688 6.62022 25.7022 6.61223 25.6854 6.5363C25.6115 6.21378 25.8733 5.94315 25.9518 5.65443C25.9635 5.6108 25.8294 5.62647 25.8374 5.5615C25.867 5.32105 25.8056 4.91055 26.1002 4.76628C26.3378 4.64038 26.4822 4.85238 26.5853 4.74505C26.6347 4.69136 26.2202 4.59559 26.2083 4.58052C26.0854 4.45004 26.2762 4.38988 26.2202 4.32074C26.2084 4.30818 26.0373 4.3177 26.0291 4.30889C26.0003 4.28426 26.0723 4.26718 26.0663 4.32858C26.0648 4.36085 25.9346 4.3773 25.9547 4.42357C25.9813 4.48717 26.0241 4.58431 26.1327 4.73066C26.2516 4.88843 26.4509 5.12981 26.8674 5.29524C26.9278 5.31318 26.6093 4.96241 27.1116 5.21162C27.2718 5.27327 27.4482 5.29683 27.5955 5.28899C27.7361 5.2809 27.8241 5.25437 27.9048 5.2259C28.0642 5.16434 28.0934 5.12561 28.1435 5.11384C28.1967 5.09127 28.2304 5.08552 28.2642 5.09521C28.3013 5.11426 28.5065 5.33154 28.3771 5.1707C28.3477 5.13941 28.1078 4.87246 28.3036 5.11405C28.3365 5.15358 28.5962 5.48546 28.3629 5.34201C28.3023 5.30327 28.0604 5.1334 28.0722 5.18939C28.0746 5.19767 28.2063 5.29102 28.1995 5.32207C28.1731 5.43029 28.0837 5.5066 28.038 5.63301C28.0259 5.66713 28.1831 5.74039 28.1607 5.78808C28.0991 5.91981 27.9365 6.03379 27.7818 6.11471C27.7244 6.14435 27.6579 6.01668 27.644 6.00933C27.424 5.88489 27.6219 6.14983 27.6161 6.18173C27.5789 6.37426 27.3781 6.34613 27.2652 6.48553C27.2323 6.52445 27.3553 6.62742 27.3559 6.64461C27.3501 6.81958 27.2473 6.54541 27.1739 6.56088C27.1049 6.57468 27.0374 6.59914 26.9696 6.62983C26.8927 6.65401 26.8301 6.70499 26.7732 6.75567C26.7421 6.78371 26.8767 6.91408 26.8474 6.93759C26.6747 7.08025 26.4673 7.18175 26.2324 7.19938C26.188 7.20235 26.1414 7.06814 26.1185 7.04439C25.9598 6.87742 26.0355 7.18388 26.0322 7.2188C26.0191 7.37732 25.9295 7.28529 25.8724 7.34236C25.5929 7.62417 25.1352 7.76078 24.7922 7.86369C24.3439 7.99945 23.965 8.01655 23.5692 8.20962C23.5438 8.22172 23.638 8.38459 23.6168 8.3973C23.3396 8.55364 23.0229 8.59162 22.7379 8.74341C22.7144 8.75555 22.806 8.91087 22.7698 8.93605C22.6947 8.98929 22.5869 9.01402 22.4847 8.98702C22.4354 8.97403 22.4453 8.8124 22.3969 8.80215C22.285 8.77761 22.1781 8.79675 22.0873 8.85252C22.048 8.8768 22.1629 9.03132 22.1075 9.04948C21.7339 9.17546 21.3487 9.3036 20.892 9.15244C20.8604 9.14206 20.7697 8.78624 20.7246 8.86564C20.7253 8.87037 20.7259 8.87514 20.7266 8.87995C20.7402 8.97755 20.7601 9.08934 20.7764 9.19168C20.2395 9.34598 19.6796 9.29295 19.1285 9.32397C19.105 9.32533 19.1633 9.51501 19.1177 9.51863C18.8547 9.53945 18.6002 9.61137 18.3177 9.43149C18.2898 9.41386 18.2876 9.0721 18.2127 9.12699C18.1989 9.1371 18.083 9.18701 18.0543 9.26197C18.0503 9.27328 18.0775 9.43199 18.0384 9.43783C17.8125 9.46877 17.571 9.43454 17.336 9.33148C17.2987 9.31452 17.3429 9.14576 17.3168 9.1322C17.1309 9.03705 16.912 9.1557 16.7102 8.97773C16.5752 8.85655 16.6686 8.57208 16.6403 8.27566C16.639 8.23463 16.5509 8.21159 16.5831 8.04605C16.6658 7.63149 16.7814 7.18276 16.8636 6.73964C16.8755 6.64284 16.867 6.74835 16.9121 6.51789C16.9116 6.50163 16.9285 6.42574 16.9481 6.34839C16.9593 6.29451 16.9861 6.12564 17.0001 6.0566C17.0132 5.98748 16.998 6.13021 17.0238 6.05017C17.0507 5.9691 17.0637 5.77498 17.1001 5.75568ZM26.0901 11.8821C26.2569 11.8338 25.6605 11.7859 25.7992 11.8596C25.8066 11.8632 26.0819 11.8846 26.0901 11.8821ZM27.7394 18.9475C27.9549 18.7781 27.5775 18.8818 27.4094 19.0079C27.2411 19.133 27.6739 18.9983 27.7394 18.9475ZM28.1852 19.5788C28.3545 19.4307 27.5494 19.6981 27.7389 19.7223C27.7496 19.7237 28.1753 19.5873 28.1852 19.5788ZM16.9508 8.22895C16.9513 8.22108 16.8992 8.20886 16.8974 8.21653C16.8515 8.40326 16.9582 8.42786 16.9508 8.22895ZM28.5932 20.2387C28.6986 20.1853 28.5514 20.1418 28.4208 20.2083C28.3156 20.2607 28.462 20.3037 28.5932 20.2387ZM27.0451 8.91805C27.0541 8.91839 27.0667 8.88638 27.0168 8.87996C26.8558 8.85935 26.8945 8.9121 27.0451 8.91805ZM28.8017 21.5083C28.8177 21.3192 29.5004 21.1204 29.4438 21.3496C29.4333 21.3905 29.2133 21.2853 29.1552 21.3416C29.0492 21.4423 29.4927 21.466 29.2645 21.5793C29.2227 21.5983 28.7993 21.5179 28.8007 21.5081C28.801 21.5081 28.8013 21.5082 28.8017 21.5083ZM26.8093 11.8946C26.8173 11.8939 26.8278 11.8482 26.82 11.8466C26.6322 11.8089 26.6109 11.9015 26.8093 11.8946ZM27.7125 7.04518C27.7295 7.04556 27.7626 6.94316 27.748 6.9363C27.451 6.82981 27.3828 7.03857 27.7125 7.04518ZM27.5674 14.9092C27.7644 14.9199 27.7981 14.9714 27.5715 15.0594C27.5738 15.0088 27.5656 14.96 27.5674 14.9092Z" fill="var(--stroke-0, black)"/>
</g>
</svg>
